<?xml version="1.0" encoding="UTF-8"?>
<svg id="Layer_2" data-name="Layer 2" xmlns="http://www.w3.org/2000/svg" viewBox="0 0 409.19 260.49">
  <g id="Layer_1-2" data-name="Layer 1">
    <g>
      <path d="m.31,127.88c1.02-3.69,3.59-6.84,5.95-9.8,28.79-36.09,62.2-67.03,102.37-90.18C135.08,12.66,163.29,2.42,193.99.36c28.12-1.89,55.03,3.64,80.83,14.67,36.97,15.81,68.59,39.44,96.71,67.8,11.68,11.78,22.35,24.59,33.14,37.22,6.13,7.17,5.91,13.07.05,20.48-28.95,36.67-62.57,68.16-103.17,91.65-32.1,18.57-66.35,29.82-103.97,28.15-25.73-1.14-50.01-8.08-73.05-19.39-48.37-23.76-87.09-59.08-120.22-100.99-2.66-3.32-5.21-7.67-4-12.07Zm378.8,2.65c-8.32-9-15.68-17.4-23.51-25.34-26.33-26.72-55.47-49.65-90.16-64.7-17.29-7.5-35.29-12.43-54.27-13.32-29.01-1.37-55.69,6.73-81.1,19.87-28.4,14.68-52.96,34.5-75.32,57.13-8.2,8.3-15.89,17.09-24.21,26.09,8.08,8.73,15.51,17.22,23.43,25.23,26.26,26.6,55.27,49.46,89.84,64.47,17.3,7.51,35.28,12.47,54.25,13.4,29.01,1.42,55.69-6.68,81.13-19.75,24.67-12.68,46.56-29.33,66.49-48.47,11.39-10.94,21.99-22.7,33.44-34.61Z"/>
      <path d="m285.48,130.42c-.14,44.62-36.28,80.67-80.82,80.62-44.73-.05-81.05-36.55-80.72-81.12.33-44.71,36.55-80.65,81.01-80.42,44.66.24,80.66,36.41,80.52,80.92Zm-26.93-.23c-.09-29.73-24.15-53.78-53.82-53.81-29.63-.02-53.73,24.02-53.9,53.76-.17,29.67,24.43,54.24,54.06,54.01,29.8-.24,53.75-24.32,53.66-53.96Z"/>
    </g>
  </g>
</svg>