<?xml version="1.0" encoding="UTF-8"?>
<svg id="Layer_2" data-name="Layer 2" xmlns="http://www.w3.org/2000/svg" viewBox="0 0 36 36">
  <defs>
    <style>
      .cls-1 {
        fill: #545454;
      }

      .cls-2 {
        fill: #fa0;
      }
    </style>
  </defs>
  <g id="Layer_1-2" data-name="Layer 1">
    <g>
      <polygon class="cls-1" points="20.16 6.93 15.82 6.93 16.21 22.24 19.78 22.24 20.16 6.93"/>
      <path class="cls-1" d="m16.34,28.32c.46.5,1.01.75,1.66.75.42,0,.8-.12,1.15-.35s.64-.54.85-.93c.22-.39.33-.82.34-1.29,0-.7-.24-1.29-.71-1.79-.47-.5-1.01-.75-1.63-.75s-1.2.25-1.66.75c-.46.5-.69,1.1-.68,1.79,0,.71.22,1.31.68,1.81Z"/>
    </g>
    <path class="cls-2" d="m18,0C8.06,0,0,8.06,0,18s8.06,18,18,18,18-8.06,18-18S27.94,0,18,0Zm2.17,6.93l-.38,15.3h-3.57l-.39-15.3h4.34Zm-.16,20.86c-.22.39-.5.7-.85.93-.35.23-.74.35-1.15.35-.64,0-1.2-.25-1.66-.75-.46-.5-.69-1.1-.68-1.81,0-.7.22-1.29.68-1.79.46-.5,1.01-.75,1.66-.75s1.16.25,1.63.75c.47.5.71,1.1.71,1.79,0,.47-.12.9-.34,1.29Z"/>
  </g>
</svg>