<?xml version="1.0" encoding="UTF-8"?>
<svg id="Layer_2" data-name="Layer 2" xmlns="http://www.w3.org/2000/svg" viewBox="0 0 409.19 274.6">
  <g id="Layer_1-2" data-name="Layer 1">
    <g>
      <path d="m308.4,237.8s0,0,0,0l-19.66-19.66s0,0,0,0l-24.06-24.06s0,0,0,0l-19.07-19.07s0,0,0,0l-75.9-75.9s0,0,0,0l-19.09-19.09s0,0,0,0l-22.31-22.31s0,0,0,0l-19.93-19.93s0,0,0,0L74.99,4.39c-5.86-5.86-15.36-5.86-21.21,0-5.86,5.86-5.86,15.35,0,21.21l28.79,28.79C53.7,74.95,28.59,99.8,6.26,127.78c-2.36,2.96-4.93,6.12-5.95,9.8-1.22,4.4,1.34,8.75,4,12.07,33.14,41.91,71.86,77.23,120.22,100.99,23.03,11.31,47.31,18.25,73.05,19.39,29.64,1.31,57.2-5.4,83.25-17.38l17.56,17.56c2.93,2.93,6.77,4.39,10.61,4.39s7.68-1.46,10.61-4.39c5.86-5.86,5.86-15.36,0-21.21l-11.2-11.2Zm-155.37-112.94l66.8,66.8c-4.74,1.39-9.75,2.17-14.95,2.21-29.62.24-54.23-24.34-54.06-54.01.03-5.21.8-10.24,2.2-15Zm45.02,118.22c-18.97-.93-36.96-5.89-54.25-13.4-34.57-15.01-63.58-37.88-89.84-64.47-7.91-8.02-15.35-16.51-23.43-25.23,8.32-9,16.02-17.8,24.21-26.09,14.63-14.8,30.21-28.39,47.18-40.13l30.42,30.42c-5.29,10.69-8.3,22.72-8.4,35.46-.33,44.57,35.99,81.07,80.72,81.12,12.89.01,25.08-3,35.89-8.37l19.62,19.62c-19.69,7.81-40.25,12.15-62.12,11.08Z"/>
      <path d="m404.67,129.77c-10.79-12.63-21.46-25.43-33.14-37.22-28.12-28.36-59.74-51.99-96.71-67.8-25.8-11.04-52.71-16.56-80.83-14.67-25.52,1.71-49.32,9.09-71.81,20.28l20.42,20.42c21.64-9.52,44.29-15.03,68.58-13.89,18.98.89,36.98,5.82,54.27,13.32,34.69,15.05,63.83,37.98,90.16,64.7,7.83,7.94,15.19,16.34,23.51,25.34-11.46,11.91-22.05,23.67-33.44,34.61-13.59,13.06-28.1,24.95-43.77,35.22l19.39,19.39c31.94-21.73,59.32-48.66,83.44-79.21,5.85-7.41,6.07-13.31-.05-20.48Z"/>
      <path d="m273.74,181.91c7.41-12.18,11.69-26.47,11.74-41.78.14-44.51-35.86-80.68-80.52-80.92-15.45-.08-29.9,4.21-42.2,11.72l19.9,19.9c6.74-3.04,14.2-4.74,22.07-4.74,29.67.02,53.73,24.08,53.82,53.81.02,7.88-1.67,15.36-4.7,22.12l19.89,19.89Z"/>
    </g>
  </g>
</svg>