<?xml version="1.0" encoding="UTF-8"?>
<svg id="Layer_2" data-name="Layer 2" xmlns="http://www.w3.org/2000/svg" viewBox="0 0 36 36">
  <defs>
    <style>
      .cls-1 {
        fill: #ff448a;
      }

      .cls-2 {
        fill: #545454;
      }
    </style>
  </defs>
  <g id="Layer_1-2" data-name="Layer 1">
    <polygon class="cls-2" points="22.95 10.15 18 15.53 13.05 10.15 10.29 13.17 15.23 18.55 10.31 23.91 13.07 26.93 18 21.56 22.93 26.93 25.69 23.91 20.77 18.55 25.71 13.17 22.95 10.15"/>
    <path class="cls-1" d="m18,0C8.06,0,0,8.06,0,18s8.06,18,18,18,18-8.06,18-18S27.94,0,18,0Zm7.69,23.91l-2.76,3.02-4.93-5.37-4.93,5.37-2.76-3.02,4.92-5.36-4.94-5.38,2.76-3.02,4.95,5.39,4.95-5.39,2.76,3.02-4.94,5.38,4.92,5.36Z"/>
  </g>
</svg>