<?xml version="1.0" encoding="utf-8"?>
<!-- Generator: Adobe Illustrator 27.2.0, SVG Export Plug-In . SVG Version: 6.00 Build 0)  -->
<svg version="1.1" id="Map" xmlns="http://www.w3.org/2000/svg" xmlns:xlink="http://www.w3.org/1999/xlink" x="0px" y="0px"
	 width="2197.43px" height="1793.51px" viewBox="0 0 2197.43 1793.51" style="enable-background:new 0 0 2197.43 1793.51;"
	 xml:space="preserve">
<style type="text/css">
	.st0{fill:#161616;}
	.st1{fill:#545454;}
	.st2{fill:#00FF80;}
	.st-available{fill:#00FF80;}
	.st-booked{fill:#FF4444;}
</style>
<polygon id="Map_Base" class="st0" points="1388.76,831.62 1388.69,5.96 380.89,5.96 380.89,34.24 7,34.24 7,1359.98 928.2,1359.98 
	928.2,1786.51 2190.43,1786.51 2190.43,1680.92 "/>
<path id="Map_Outline" class="st1" d="M2016.74,1491.3l-0.95-1l-623.01-659.78L1392.75,0H374.35v28.37H0v1337.18h923.5v427.96
	h1273.93v-110.84L2016.74,1491.3z M1663.16,1718.97v67.54h-66.83v-67.54H1663.16z M1663.16,1645.95v66.02h-66.83v-66.02H1663.16z
	 M1588.8,1048.32h-65.33v-69.19L1588.8,1048.32z M1663.16,1127.06v69.68h-139.69v-141.42h71.94L1663.16,1127.06z M1663.16,1203.74
	v140.28h-139.69v-140.28H1663.16z M1663.16,1351.02v138.34h-139.69v-138.34H1663.16z M1663.16,1496.36v142.59h-139.69v-142.59
	H1663.16z M1589.33,1645.95v66.02h-65.86v-66.02H1589.33z M1589.33,1718.97v67.54h-65.86v-67.54H1589.33z M1516.47,1718.97v67.54
	h-66.83v-67.54H1516.47z M1516.47,1646v65.97h-66.83V1646H1516.47z M1516.47,1496.36v142.59h-123.72v-142.59H1516.47z
	 M1516.47,1351.02v138.34h-123.72v-138.34H1516.47z M1516.47,1203.74v140.28h-123.72v-140.28H1516.47z M1392.75,1048.32V840.7
	l123.72,131.02v76.6H1392.75z M1516.47,1055.32v141.42h-123.72v-141.42H1516.47z M1369.39,1718.97v67.54h-67.31v-67.54H1369.39z
	 M1358.29,440.97V334.45h27.44l0.01,106.52H1358.29z M1358.29,327.45V301.5h27.44v25.95H1358.29z M1358.29,294.5V187.98h27.43
	l0.01,106.52H1358.29z M1358.29,180.98v-25.86h27.42l0.01,25.86H1358.29z M1358.29,148.12V38.46h27.41l0.01,109.66H1358.29z
	 M1358.29,31.46V7h27.41v24.46H1358.29z M1358.29,474.08v-26.11h27.45l0.01,26.11H1358.29z M1358.29,590.52V481.08h27.46v109.44
	H1358.29z M1358.29,620.36v-22.84h27.46v22.84H1358.29z M1358.29,736.8V627.36h27.46V736.8H1358.29z M1358.29,769.88V743.8h27.46
	v26.08H1358.29z M1358.29,883.61V776.88h27.46v106.73H1358.29z M1385.75,1333.05v25.41h-27.06l0.07-25.41H1385.75z M1369.39,1365.46
	v51.23h-67.31v-65.67h49.63l-0.04,14.44H1369.39z M1302.08,1344.02v-68.21h67.31v50.24h-17.6l-0.06,17.97H1302.08z M1302.08,1268.81
	v-65.07h67.31v65.07H1302.08z M1302.08,1196.74v-67.11h67.31v67.11H1302.08z M1302.08,1122.63v-67.31h67.31v67.31H1302.08z
	 M1302.08,1048.32v-65.39h67.31v65.39H1302.08z M1369.39,923.25v52.68h-67.31v-67.69h49.21v15.01H1369.39z M1385.75,1275.81v50.24
	h-9.36v-50.24H1385.75z M1385.75,1203.74v65.07h-9.36v-65.07H1385.75z M1385.75,1129.63v67.11h-9.36v-67.11H1385.75z
	 M1385.75,1055.32v67.31h-9.36v-67.31H1385.75z M1385.75,982.93v65.39h-9.36v-65.39H1385.75z M1385.75,923.25v52.68h-9.36v-52.68
	H1385.75z M1358.29,916.25v-25.64h27.46v25.64H1358.29z M1302.08,901.24v-68.85h49.21v68.85H1302.08z M1302.08,825.39v-66.74h49.21
	v66.74H1302.08z M1302.08,751.65v-64.8h49.21v64.8H1302.08z M1302.08,679.85v-67.89h49.21v67.89H1302.08z M1302.08,604.96v-67.12
	h49.21v67.12H1302.08z M1302.08,530.84v-65h49.21v65H1302.08z M1302.08,458.84v-67.89h49.21v67.89H1302.08z M1302.08,383.95v-67.82
	h49.21v67.82H1302.08z M1302.08,309.13v-64.3h49.21v64.3H1302.08z M1302.08,237.83v-68.01h49.21v68.01H1302.08z M1302.08,162.82
	V95.19h49.21v67.63H1302.08z M1302.08,88.19v-64.6h49.21v64.6H1302.08z M1302.08,16.59V7h49.21v9.59H1302.08z M1302.08,1489.37
	v-65.68h67.31v65.68H1302.08z M1302.08,1565.21v-68.84h67.31v68.84H1302.08z M1302.08,1638.95v-66.74h67.31v66.74H1302.08z
	 M1369.39,1645.95v66.02h-67.31v-66.02H1369.39z M1385.75,1572.21v66.74h-9.36v-66.74H1385.75z M1385.75,1496.37v68.84h-9.36v-68.84
	H1385.75z M1385.75,1423.69v65.68h-9.36v-65.68H1385.75z M1385.75,1365.46v51.23h-9.36v-51.23H1385.75z M1442.64,1646v65.97h-66.25
	v-66.02h9.36v0.05H1442.64z M1442.64,1718.97v67.54h-66.25v-67.54H1442.64z M87.89,891.68v466.87H7V891.68H87.89z M7,176.62V35.37
	h124.02v141.25H7z M7,320.23V183.62h124.02v136.61H7z M7,458.84V327.23h124.02v131.61H7z M7,611.31V465.84h124.02v145.47H7z
	 M7,757.62V618.31h124.02v139.31H7z M131.02,764.62v120.06H7V764.62H131.02z M1205.37,908.24v363.57l-0.02,72.21h-131.79v14.44
	H94.89V891.68H924.3v16.56H1205.37z M851.34,832.39v52.29h-9.75v-52.29H851.34z M851.34,758.65v66.74h-9.75v-66.74H851.34z
	 M851.34,686.85v64.8h-9.75v-64.8H851.34z M851.34,611.96v67.89h-9.75v-67.89H851.34z M851.34,537.84v67.12h-9.75v-67.12H851.34z
	 M851.34,465.84v65h-9.75l0-65H851.34z M851.34,390.95v67.89h-9.75v-67.89H851.34z M851.34,316.13v67.82h-9.75v-67.82H851.34z
	 M851.34,244.83v64.3h-9.75v-64.3H851.34z M851.34,169.82v68.01h-9.75v-68.01H851.34z M851.34,95.19v67.63h-9.75V95.19H851.34z
	 M851.34,22.03v66.16h-9.75V22.03H851.34z M931.3,88.19V38.46h67.69v49.73H931.3z M931.3,162.82V95.19h67.69v67.63H931.3z
	 M931.3,237.83v-68.01h67.69v68.01H931.3z M931.3,309.13v-64.3h67.69v64.3H931.3z M931.3,383.95v-67.82h67.69v67.82H931.3z
	 M924.3,832.39v52.29h-65.96v-52.29H924.3z M924.3,758.65v66.74h-65.96v-66.74H924.3z M924.3,686.85v64.8h-65.96v-64.8H924.3z
	 M924.3,611.96v67.89h-65.96v-67.89H924.3z M924.3,537.84v67.12h-65.96v-67.12H924.3z M924.3,38.46v49.73h-65.96V22.03h33.03v16.43
	H924.3z M858.34,162.82V95.19h65.96v67.63H858.34z M858.34,237.83v-68.01h65.96v68.01H858.34z M858.34,309.13v-64.3h65.96v64.3
	H858.34z M858.34,383.95v-67.82h65.96v67.82H858.34z M924.3,480.47v50.37h-65.96v-65h51.13v14.63H924.3z M858.34,458.84v-67.89
	h65.96v49.73h-14.83v18.16H858.34z M916.47,473.47v-25.79h25.79v25.79H916.47z M931.3,440.68v-49.73h67.69v67.89h-49.73v-18.16
	H931.3z M998.99,465.84v65H931.3v-50.37h17.96v-14.63H998.99z M998.99,537.84v67.12H931.3v-67.12H998.99z M998.99,611.96v67.89
	H931.3v-67.89H998.99z M998.99,686.85v64.8H931.3v-64.8H998.99z M998.99,758.65v66.74H931.3v-66.74H998.99z M998.99,832.39v52.29
	H931.3v-52.29H998.99z M998.99,891.68v9.56H931.3v-9.56H998.99z M891.37,7v8.03l-49.78,0V7H891.37z M1005.99,88.19V38.46h67.7v49.73
	H1005.99z M1005.99,162.82V95.19h67.7v67.63H1005.99z M1005.99,237.83v-68.01h67.7v68.01H1005.99z M1005.99,309.13v-64.3h67.7v64.3
	H1005.99z M1005.99,383.95v-67.82h67.7v67.82H1005.99z M1005.99,458.84v-67.89h67.7v67.89H1005.99z M1005.99,530.84v-65h67.7v65
	H1005.99z M1005.99,604.96v-67.12h67.7v67.12H1005.99z M1005.99,679.85v-67.89h67.7v67.89H1005.99z M1005.99,751.65v-64.8h67.7v64.8
	H1005.99z M1005.99,825.39v-66.74h67.7v66.74H1005.99z M1005.99,884.68v-52.29h67.7v52.29H1005.99z M1005.99,901.24v-9.56h67.7v9.56
	H1005.99z M1080.69,88.19V38.46h65v49.73H1080.69z M1080.69,162.82V95.19h65v67.63H1080.69z M1080.69,237.83v-68.01h65v68.01
	H1080.69z M1080.69,309.13v-64.3h65v64.3H1080.69z M1080.69,383.95v-67.82h65v67.82H1080.69z M1080.69,458.84v-67.89h65v67.89
	H1080.69z M1080.69,530.84v-65h65v65H1080.69z M1080.69,604.96v-67.12h65v67.12H1080.69z M1080.69,679.85v-67.89h65v67.89H1080.69z
	 M1080.69,751.65v-64.8h65v64.8H1080.69z M1080.69,825.39v-66.74h65v66.74H1080.69z M1080.69,884.68v-52.29h65v52.29H1080.69z
	 M1080.69,901.24v-9.56h65v9.56H1080.69z M1220.77,1351.02v7.44h-68.02v-7.44H1220.77z M1220.77,1365.46v51.23h-68.02v-51.23
	H1220.77z M1220.77,1423.69v51.24h-68.02v-51.24H1220.77z M1220.77,1481.93v7.44h-68.02v-7.44H1220.77z M930.53,1416.69v-51.23
	h68.01v51.23H930.53z M930.53,1474.93v-51.24h68.01v51.24H930.53z M1005.54,1416.69v-51.23h68.02v51.23H1005.54z M1005.54,1474.93
	v-51.24h68.02v51.24H1005.54z M930.5,1481.93h143.06v14.44h131.8v222.6h15.4v67.54H930.5V1481.93z M1080.56,1358.46v-7.44h65.19
	v7.44H1080.56z M1080.56,1416.69v-51.23h65.19v51.23H1080.56z M1080.56,1474.93v-51.24h65.19v51.24H1080.56z M1080.56,1489.37v-7.44
	h65.19v7.44H1080.56z M1220.77,1645.95v66.02h-8.41v-66.02H1220.77z M1220.77,1572.21v66.74h-8.41v-66.74H1220.77z M1220.77,1496.37
	v68.84h-8.41v-68.84H1220.77z M1220.77,1275.81v68.21h-8.4v-68.21H1220.77z M1220.77,1203.74v65.07h-8.4v-65.07H1220.77z
	 M1220.77,1129.63v67.11h-8.4v-67.11H1220.77z M1220.77,1055.32v67.31h-8.4v-67.31H1220.77z M1220.77,982.93v65.39h-8.4v-65.39
	H1220.77z M1220.77,908.24v67.69h-8.4v-67.69H1220.77z M1220.77,891.68v9.56h-68.08v-9.56H1220.77z M1220.77,832.39v52.29h-68.08
	v-52.29H1220.77z M1220.77,758.65v66.74h-68.08v-66.74H1220.77z M1220.77,686.85v64.8h-68.08v-64.8H1220.77z M1220.77,611.96v67.89
	h-68.08v-67.89H1220.77z M1220.77,537.84v67.12h-68.08v-67.12H1220.77z M1220.77,465.84v65h-68.08v-65H1220.77z M1220.77,390.95
	v67.89h-68.08v-67.89H1220.77z M1220.77,316.13v67.82h-68.08v-67.82H1220.77z M1220.77,244.83v64.3h-68.08v-64.3H1220.77z
	 M1220.77,169.82v68.01h-68.08v-68.01H1220.77z M1220.77,95.19v67.63h-68.08V95.19H1220.77z M1220.77,38.46v49.73h-68.08V38.46
	H1220.77z M1295.08,23.59v64.6h-67.31V38.46h44.79V23.59H1295.08z M1265.56,7v24.46H898.37V7H1265.56z M1295.08,95.19v67.63h-67.31
	V95.19H1295.08z M1295.08,169.82v68.01h-67.31v-68.01H1295.08z M1295.08,244.83v64.3h-67.31v-64.3H1295.08z M1295.08,316.13v67.82
	h-67.31v-67.82H1295.08z M1295.08,390.95v67.89h-67.31v-67.89H1295.08z M1295.08,465.84v65h-67.31v-65H1295.08z M1295.08,537.84
	v67.12h-67.31v-67.12H1295.08z M1295.08,611.96v67.89h-67.31v-67.89H1295.08z M1295.08,686.85v64.8h-67.31v-64.8H1295.08z
	 M1295.08,758.65v66.74h-67.31v-66.74H1295.08z M1295.08,832.39v68.85h-67.31v-68.85H1295.08z M1295.08,908.24v67.69h-67.31v-67.69
	H1295.08z M1295.08,982.93v65.39h-67.31v-65.39H1295.08z M1295.08,1055.32v67.31h-67.31v-67.31H1295.08z M1295.08,1129.63v67.11
	h-67.31v-67.11H1295.08z M1295.08,1203.74v65.07h-67.31v-65.07H1295.08z M1295.08,1275.81v68.21h-67.31v-68.21H1295.08z
	 M1295.08,1351.02v65.67h-67.31v-65.67H1295.08z M1295.08,1423.69v65.68h-67.31v-65.68H1295.08z M1295.08,1496.37v68.84h-67.31
	v-68.84H1295.08z M1295.08,1572.21v66.74h-67.31v-66.74H1295.08z M1295.08,1645.95v66.02h-67.31v-66.02H1295.08z M1295.08,1718.97
	v67.54h-67.31l0-67.54H1295.08z M1295.08,7v9.59h-22.52V7H1295.08z M834.59,95.38v67.44h-8.41V95.38H834.59z M834.59,169.82v68.01
	h-8.41v-68.01H834.59z M834.59,244.83v64.3h-8.41v-64.3H834.59z M834.59,316.13v67.82h-8.41v-67.82H834.59z M834.59,537.84v67.12
	h-8.41v-67.12H834.59z M834.59,611.96v67.89h-8.41v-67.89H834.59z M834.59,686.85v64.8h-8.41v-64.8H834.59z M834.59,758.65v66.74
	h-8.41v-66.74H834.59z M381.35,465.84h437.83v14.63h15.41v50.37h-15.41v301.55h15.41v52.29H381.35V465.84z M819.18,440.68v18.16
	H381.35V35.37h453.24v52.82h-15.41v302.76h15.41v49.73H819.18z M381.35,28.37V7h453.24v21.37L381.35,28.37z M834.59,447.68v25.79
	h-8.41v-25.79H834.59z M138.02,176.62V35.37H262.7v141.25H138.02z M138.02,320.23V183.62H262.7v136.61H138.02z M138.02,458.84
	V327.23H262.7v131.61H138.02z M138.02,611.31V465.84H262.7v145.47H138.02z M138.02,757.62V618.31H262.7v139.31H138.02z
	 M138.02,884.68V764.62H262.7v120.06H138.02z M269.7,176.62V35.37h104.65v141.25H269.7z M269.7,320.23V183.62h104.65v136.61H269.7z
	 M269.7,458.84V327.23h104.65v131.61H269.7z M269.7,611.31V465.84h104.65v145.47H269.7z M269.7,757.62V618.31h104.65v139.31H269.7z
	 M269.7,884.68V764.62h104.65v120.06H269.7z M2011.89,1496.37l47.16,49.95v92.62h-125.14v-142.58H2011.89z M1933.91,1489.37v-75.58
	l71.36,75.58H1933.91z M2059.05,1645.95v140.56h-125.14l0-140.56H2059.05z M1793.89,1645.95v140.56h-123.73v-140.56H1793.89z
	 M1793.89,1496.37v142.58h-123.73v-142.58H1793.89z M1670.16,1196.74v-62.27l58.79,62.27H1670.16z M1926.91,1496.37v142.58h-126.02
	v-142.58H1926.91z M1841.69,1344.02v-17.46h-40.8v-53.64l67.13,71.09H1841.69z M1926.91,1489.37h-126.02v-123.79h40.8v-14.56h32.94
	l52.27,55.36V1489.37z M1834.69,1333.56v25.02h-75.07v-25.02H1834.69z M1793.89,1365.58v123.79h-123.73v-138.35h82.46v14.56H1793.89
	z M1670.16,1344.02v-140.28h65.41l58.32,61.76v61.05h-41.27v17.46H1670.16z M1926.91,1645.95v140.56h-126.02v-140.56H1926.91z
	 M2066.05,1638.95v-85.21l80.47,85.21H2066.05z M2066.05,1786.51v-140.56h87.08l37.31,39.5v101.06H2066.05z"/>
<g id="Back_Terrace">
	<rect id="L4" x="269.7" y="764.62" class="st2" width="104.65" height="120.06"/>
	<rect id="L1" x="138.02" y="764.62" class="st2" width="124.68" height="120.06"/>
	<rect id="L3" x="138.02" y="465.84" class="st2" width="124.68" height="145.47"/>
	<rect id="L2" x="138.02" y="618.31" class="st2" width="124.68" height="139.31"/>
	<rect id="L6" x="269.7" y="465.84" class="st2" width="104.65" height="145.47"/>
	<rect id="L5" x="269.7" y="618.31" class="st2" width="104.65" height="139.31"/>
</g>
<g id="Front_Terrace">
	<rect id="K1" x="1392.75" y="1351.02" class="st2" width="123.72" height="138.34"/>
	<rect id="K6" x="1523.47" y="1203.74" class="st2" width="139.69" height="140.28"/>
	<rect id="K4" x="1523.47" y="1496.36" class="st2" width="139.69" height="142.59"/>
	<polygon id="K9" class="st2" points="1670.16,1351.02 1670.16,1489.37 1793.89,1489.37 1793.89,1365.58 1752.62,1365.58 
		1752.62,1351.02 	"/>
	<rect id="K5" x="1523.47" y="1351.02" class="st2" width="139.69" height="138.34"/>
	<rect id="K7" x="1670.16" y="1645.95" class="st2" width="123.73" height="140.56"/>
	<rect id="K10" x="1800.89" y="1496.37" class="st2" width="126.02" height="142.58"/>
	<rect id="K8" x="1670.16" y="1496.37" class="st2" width="123.73" height="142.58"/>
	<rect id="K3" x="1392.75" y="1055.32" class="st2" width="123.72" height="141.42"/>
	<rect id="K2" x="1392.75" y="1203.74" class="st2" width="123.72" height="140.28"/>
</g>
<g id="Pillar">
	<rect id="Z9" x="916.47" y="447.68" class="st2" width="25.79" height="25.79"/>
	<rect id="Z8" x="1358.29" y="7" class="st2" width="27.42" height="24.46"/>
	<rect id="Z7" x="1358.29" y="155.12" class="st2" width="27.42" height="25.86"/>
	<rect id="Z6" x="1358.29" y="301.55" class="st2" width="27.42" height="25.86"/>
	<rect id="Z4" x="1358.29" y="597.52" class="st2" width="27.42" height="22.81"/>
	<rect id="Z3" x="1358.31" y="743.8" class="st2" width="27.42" height="26.08"/>
	<rect id="Z2" x="1358.29" y="890.61" class="st2" width="27.42" height="25.64"/>
	<rect id="Z1" x="1358.73" y="1333.05" class="st2" width="26.98" height="25.41"/>
	<rect id="Z5" x="1358.29" y="448.09" class="st2" width="27.42" height="25.86"/>
</g>
<g id="Square">
	<polygon id="A5" class="st2" points="931.3,530.84 998.99,530.84 998.99,465.84 949.26,465.84 949.26,480.47 931.3,480.47 	"/>
	<rect id="A1" x="931.3" y="758.65" class="st2" width="67.69" height="66.74"/>
	<rect id="A4" x="931.3" y="537.84" class="st2" width="67.69" height="67.12"/>
	<rect id="A2" x="931.3" y="686.85" class="st2" width="67.69" height="64.8"/>
	<rect id="B1" x="1005.99" y="758.65" class="st2" width="67.7" height="66.74"/>
	<polygon id="A6" class="st2" points="998.99,458.84 998.99,390.95 931.3,390.95 931.3,440.68 949.26,440.68 949.26,458.84 	"/>
	<rect id="D5" x="1152.69" y="465.84" class="st2" width="68.08" height="65"/>
	<rect id="B10" x="1005.99" y="95.19" class="st2" width="67.7" height="67.63"/>
	<rect id="B3" x="1005.99" y="611.96" class="st2" width="67.7" height="67.89"/>
	<rect id="B2" x="1005.99" y="686.85" class="st2" width="67.7" height="64.8"/>
	<rect id="B9" x="1005.99" y="169.82" class="st2" width="67.7" height="68.01"/>
	<rect id="D7" x="1152.69" y="316.13" class="st2" width="68.08" height="67.82"/>
	<rect id="D8" x="1152.69" y="244.83" class="st2" width="68.08" height="64.3"/>
	<rect id="D9" x="1152.69" y="169.82" class="st2" width="68.08" height="68.01"/>
	<rect id="D10" x="1152.69" y="95.19" class="st2" width="68.08" height="67.63"/>
	<rect id="D4" x="1152.69" y="537.84" class="st2" width="68.08" height="67.12"/>
	<rect id="A7" x="931.3" y="316.13" class="st2" width="67.69" height="67.82"/>
	<rect id="A9" x="931.3" y="169.82" class="st2" width="67.69" height="68.01"/>
	<rect id="A10" x="931.3" y="95.19" class="st2" width="67.69" height="67.63"/>
	<rect id="D11" x="1152.69" y="38.46" class="st2" width="68.08" height="49.73"/>
	<rect id="A3" x="931.3" y="611.96" class="st2" width="67.69" height="67.89"/>
	<g id="E4">
		<polygon class="st2" points="1358.29,334.45 1358.29,440.97 1385.74,440.97 1385.73,334.45 		"/>
		<rect x="1227.77" y="537.84" class="st2" width="67.31" height="67.12"/>
	</g>
	<g id="E3">
		<rect x="1358.29" y="481.08" class="st2" width="27.46" height="109.44"/>
		<rect x="1227.77" y="611.96" class="st2" width="67.31" height="67.89"/>
	</g>
	<g id="E2">
		<rect x="1358.29" y="627.36" class="st2" width="27.46" height="109.44"/>
		<rect x="1227.77" y="686.85" class="st2" width="67.31" height="64.8"/>
	</g>
	<g id="E1">
		<rect x="1358.29" y="776.88" class="st2" width="27.46" height="106.73"/>
		<rect x="1227.77" y="758.65" class="st2" width="67.31" height="66.74"/>
	</g>
	<rect id="E10" x="1227.77" y="95.19" class="st2" width="67.31" height="67.63"/>
	<rect id="D3" x="1152.69" y="611.96" class="st2" width="68.08" height="67.89"/>
	<rect id="E8" x="1227.77" y="244.83" class="st2" width="67.31" height="64.3"/>
	<rect id="E7" x="1227.77" y="316.13" class="st2" width="67.31" height="67.82"/>
	<rect id="E9" x="1227.77" y="169.82" class="st2" width="67.31" height="68.01"/>
	<rect id="C3" x="1080.69" y="611.96" class="st2" width="65" height="67.89"/>
	<rect id="B4" x="1005.99" y="537.84" class="st2" width="67.7" height="67.12"/>
	<rect id="C9" x="1080.69" y="169.82" class="st2" width="65" height="68.01"/>
	<rect id="B6" x="1005.99" y="390.95" class="st2" width="67.7" height="67.89"/>
	<rect id="B5" x="1005.99" y="465.84" class="st2" width="67.7" height="65"/>
	<rect id="B7" x="1005.99" y="316.13" class="st2" width="67.7" height="67.82"/>
	<rect id="C5" x="1080.69" y="465.84" class="st2" width="65" height="65"/>
	<rect id="C4" x="1080.69" y="537.84" class="st2" width="65" height="67.12"/>
	<rect id="C6" x="1080.69" y="390.95" class="st2" width="65" height="67.89"/>
	<rect id="D6" x="1152.69" y="390.95" class="st2" width="68.08" height="67.89"/>
	<rect id="C7" x="1080.69" y="316.13" class="st2" width="65" height="67.82"/>
	<rect id="A11" x="931.3" y="38.46" class="st2" width="67.69" height="49.73"/>
	<rect id="B11" x="1005.99" y="38.46" class="st2" width="67.7" height="49.73"/>
	<rect id="C11" x="1080.69" y="38.46" class="st2" width="65" height="49.73"/>
	<polygon id="E11" class="st2" points="1227.77,38.46 1227.77,88.19 1295.08,88.19 1295.08,23.59 1272.56,23.59 1272.56,38.46 	"/>
	<rect id="C10" x="1080.69" y="95.19" class="st2" width="65" height="67.63"/>
	<rect id="A8" x="931.3" y="244.83" class="st2" width="67.69" height="64.3"/>
	<rect id="B8" x="1005.99" y="244.83" class="st2" width="67.7" height="64.3"/>
	<rect id="C8" x="1080.69" y="244.83" class="st2" width="65" height="64.3"/>
	<g id="E6">
		<rect x="1227.77" y="390.95" class="st2" width="67.31" height="67.89"/>
		<polygon class="st2" points="1358.29,38.46 1358.29,148.12 1385.71,148.12 1385.7,38.46 		"/>
	</g>
	<g id="E5">
		<rect x="1227.77" y="465.84" class="st2" width="67.31" height="65"/>
		<polygon class="st2" points="1358.29,187.98 1358.29,294.5 1385.73,294.5 1385.72,187.98 		"/>
	</g>
</g>
<g id="Glass_Wall">
	<rect id="Y13" x="1212.37" y="908.24" class="st2" width="8.4" height="67.69"/>
	<rect id="Y14" x="1152.69" y="891.68" class="st2" width="68.08" height="9.56"/>
	<rect id="Y7" x="1152.75" y="1351.02" class="st2" width="68.02" height="7.44"/>
	<rect id="Y6" x="1080.56" y="1351.02" class="st2" width="65.19" height="7.44"/>
	<rect id="Y4" x="1152.75" y="1481.93" class="st2" width="68.02" height="7.44"/>
	<rect id="Y5" x="1080.56" y="1481.93" class="st2" width="65.19" height="7.44"/>
	<rect id="Y15" x="1080.69" y="891.68" class="st2" width="65" height="9.56"/>
	<rect id="Y12" x="1212.37" y="982.93" class="st2" width="8.4" height="65.39"/>
	<rect id="Y11" x="1212.37" y="1055.32" class="st2" width="8.4" height="67.31"/>
	<rect id="Y10" x="1212.37" y="1129.63" class="st2" width="8.4" height="67.11"/>
	<rect id="Y9" x="1212.37" y="1203.74" class="st2" width="8.4" height="65.07"/>
	<rect id="Y8" x="1212.37" y="1275.81" class="st2" width="8.4" height="68.21"/>
	<rect id="Y3" x="1212.37" y="1496.37" class="st2" width="8.41" height="68.84"/>
	<rect id="Y2" x="1212.37" y="1572.21" class="st2" width="8.41" height="66.74"/>
	<rect id="Y1" x="1212.37" y="1645.95" class="st2" width="8.41" height="66.02"/>
	<rect id="Y26" x="826.18" y="95.38" class="st2" width="8.41" height="67.44"/>
	<rect id="Y25" x="826.18" y="169.82" class="st2" width="8.41" height="68.01"/>
	<rect id="Y24" x="826.18" y="244.83" class="st2" width="8.41" height="64.3"/>
	<rect id="Y23" x="826.18" y="316.13" class="st2" width="8.41" height="67.82"/>
	<rect id="Y22" x="826.18" y="447.68" class="st2" width="8.41" height="25.79"/>
	<rect id="Y21" x="826.18" y="537.84" class="st2" width="8.41" height="67.12"/>
	<rect id="Y20" x="826.18" y="611.96" class="st2" width="8.41" height="67.89"/>
	<rect id="Y19" x="826.18" y="686.85" class="st2" width="8.41" height="64.8"/>
	<rect id="Y18" x="826.18" y="758.65" class="st2" width="8.41" height="66.74"/>
	<rect id="Y17" x="931.3" y="891.68" class="st2" width="67.69" height="9.56"/>
	<rect id="Y16" x="1005.99" y="891.68" class="st2" width="67.7" height="9.56"/>
</g>
<g id="Corridor">
	<rect id="J1" x="1449.64" y="1646" class="st2" width="66.83" height="65.97"/>
	<rect id="J2" x="1523.47" y="1645.95" class="st2" width="65.86" height="66.02"/>
	<rect id="J3" x="1596.33" y="1645.95" class="st2" width="66.83" height="66.02"/>
	<g id="H6">
		<rect x="1302.08" y="1203.74" class="st2" width="67.31" height="65.07"/>
		<rect x="1376.39" y="1203.74" class="st2" width="9.36" height="65.07"/>
	</g>
	<g id="H2">
		<rect x="1376.39" y="1496.37" class="st2" width="9.36" height="68.84"/>
		<rect x="1302.08" y="1496.37" class="st2" width="67.31" height="68.84"/>
	</g>
	<g id="H4">
		<rect x="1376.39" y="1365.46" class="st2" width="9.36" height="51.23"/>
		<polygon class="st2" points="1302.08,1351.02 1302.08,1416.69 1369.39,1416.69 1369.39,1365.46 1351.68,1365.46 1351.72,1351.02 
					"/>
	</g>
	<g id="H3">
		<rect x="1376.39" y="1423.69" class="st2" width="9.36" height="65.68"/>
		<rect x="1302.08" y="1423.69" class="st2" width="67.31" height="65.68"/>
	</g>
	<g id="H7">
		<rect x="1302.08" y="1129.63" class="st2" width="67.31" height="67.11"/>
		<rect x="1376.39" y="1129.63" class="st2" width="9.36" height="67.11"/>
	</g>
	<g id="H9">
		<rect x="1376.39" y="982.93" class="st2" width="9.36" height="65.39"/>
		<rect x="1302.08" y="982.93" class="st2" width="67.31" height="65.39"/>
	</g>
	<rect id="G5" x="1227.77" y="1275.81" class="st2" width="67.31" height="68.21"/>
	<g id="H8">
		<rect x="1302.08" y="1055.32" class="st2" width="67.31" height="67.31"/>
		<rect x="1376.39" y="1055.32" class="st2" width="9.36" height="67.31"/>
	</g>
	<rect id="G9" x="1227.77" y="982.93" class="st2" width="67.31" height="65.39"/>
	<rect id="G8" x="1227.77" y="1055.32" class="st2" width="67.31" height="67.31"/>
	<g id="H5">
		<rect x="1376.39" y="1275.81" class="st2" width="9.36" height="50.24"/>
		<polygon class="st2" points="1302.08,1275.81 1302.08,1344.02 1351.73,1344.02 1351.79,1326.05 1369.39,1326.05 1369.39,1275.81 
					"/>
	</g>
	<rect id="G10" x="1227.77" y="908.24" class="st2" width="67.31" height="67.69"/>
	<g id="H1">
		<rect x="1302.08" y="1572.21" class="st2" width="67.31" height="66.74"/>
		<rect x="1376.39" y="1572.21" class="st2" width="9.36" height="66.74"/>
	</g>
	<rect id="G6" x="1227.77" y="1203.74" class="st2" width="67.31" height="65.07"/>
	<rect id="G7" x="1227.77" y="1129.63" class="st2" width="67.31" height="67.11"/>
	<g id="H10">
		<polygon class="st2" points="1302.08,908.24 1302.08,975.93 1369.39,975.93 1369.39,923.25 1351.29,923.25 1351.29,908.24 		"/>
		<rect x="1376.39" y="923.25" class="st2" width="9.36" height="52.68"/>
	</g>
</g>
</svg>
