<?xml version="1.0" encoding="UTF-8"?>
<svg id="Layer_2" data-name="Layer 2" xmlns="http://www.w3.org/2000/svg" viewBox="0 0 495.22 1596.67">
  <g id="Glass_Wall" data-name="Glass Wall">
    <rect id="Y26" x="27.97" y="24.01" width="57.69" height="9.67" transform="translate(85.66 -27.97) rotate(90)" style="fill: #898989;"/>
    <rect id="Y25" x="27.97" y="97.16" width="57.69" height="9.67" transform="translate(158.81 45.19) rotate(90)" style="fill: #898989;"/>
    <rect id="Y24" x="27.97" y="170.32" width="57.69" height="9.67" transform="translate(231.97 118.34) rotate(90)" style="fill: #898989;"/>
    <rect id="Y23" x="27.97" y="243.47" width="57.69" height="9.67" transform="translate(305.12 191.5) rotate(90)" style="fill: #898989;"/>
    <rect id="Y13" x="411.07" y="829.07" width="57.69" height="9.67" transform="translate(1273.82 393.99) rotate(90)" style="fill: #898989;"/>
    <rect id="Y12" x="411.07" y="902.22" width="57.69" height="9.67" transform="translate(1346.98 467.14) rotate(90)" style="fill: #898989;"/>
    <rect id="Y11" x="411.07" y="975.38" width="57.69" height="9.67" transform="translate(1420.13 540.3) rotate(90)" style="fill: #898989;"/>
    <rect id="Y10" x="411.07" y="1048.53" width="57.69" height="9.67" transform="translate(1493.29 613.45) rotate(90)" style="fill: #898989;"/>
    <rect id="Y14" x="386.06" y="785.27" width="58.7" height="9.67" transform="translate(830.81 1580.21) rotate(-180)" style="fill: #898989;"/>
    <rect id="Y15" x="311.63" y="785.27" width="58.7" height="9.67" transform="translate(681.95 1580.21) rotate(-180)" style="fill: #898989;"/>
    <rect id="Y7" x="386.06" y="1241.68" width="58.7" height="9.67" transform="translate(830.81 2493.03) rotate(-180)" style="fill: #898989;"/>
    <rect id="Y6" x="311.63" y="1241.68" width="58.7" height="9.67" transform="translate(681.95 2493.03) rotate(-180)" style="fill: #898989;"/>
    <rect id="Y4" x="386.06" y="1371.63" width="58.7" height="9.67" transform="translate(830.81 2752.94) rotate(-180)" style="fill: #898989;"/>
    <rect id="Y5" x="311.63" y="1371.63" width="58.7" height="9.67" transform="translate(681.95 2752.94) rotate(-180)" style="fill: #898989;"/>
    <rect id="Y16" x="237.2" y="785.27" width="58.7" height="9.67" transform="translate(533.09 1580.21) rotate(-180)" style="fill: #898989;"/>
    <rect id="Y17" x="162.76" y="785.27" width="58.7" height="9.67" transform="translate(384.22 1580.21) rotate(-180)" style="fill: #898989;"/>
    <rect id="Y9" x="411.07" y="1121.69" width="57.69" height="9.67" transform="translate(1566.44 686.61) rotate(90)" style="fill: #898989;"/>
    <rect id="Y8" x="411.07" y="1194.84" width="57.69" height="9.67" transform="translate(1639.6 759.76) rotate(90)" style="fill: #898989;"/>
    <rect id="Y3" x="411.07" y="1416.68" width="57.69" height="9.67" transform="translate(1861.44 981.6) rotate(90)" style="fill: #898989;"/>
    <rect id="Y2" x="411.07" y="1489.84" width="57.69" height="9.67" transform="translate(1934.59 1054.76) rotate(90)" style="fill: #898989;"/>
    <rect id="Y1" x="411.07" y="1562.99" width="57.69" height="9.67" transform="translate(2007.75 1127.91) rotate(90)" style="fill: #898989;"/>
    <rect id="Y22" x="43.95" y="353.21" width="25.73" height="9.67" transform="translate(414.86 301.23) rotate(90)" style="fill: #898989;"/>
    <rect id="Y21" x="27.97" y="462.94" width="57.69" height="9.67" transform="translate(524.59 410.96) rotate(90)" style="fill: #898989;"/>
    <rect id="Y20" x="27.97" y="536.09" width="57.69" height="9.67" transform="translate(597.74 484.12) rotate(90)" style="fill: #898989;"/>
    <rect id="Y19" x="27.97" y="609.25" width="57.69" height="9.67" transform="translate(670.9 557.27) rotate(90)" style="fill: #898989;"/>
    <rect id="Y18" x="27.97" y="682.4" width="57.69" height="9.67" transform="translate(744.05 630.43) rotate(90)" style="fill: #898989;"/>
    <text transform="translate(.12 33.74)" style="fill: #fff; font-family: Inter-Regular, Inter; font-size: 18px;"><tspan x="0" y="0">Y26</tspan></text>
    <text transform="translate(.26 106.9)" style="fill: #fff; font-family: Inter-Regular, Inter; font-size: 18px;"><tspan x="0" y="0">Y25</tspan></text>
    <text transform="translate(.09 180.05)" style="fill: #fff; font-family: Inter-Regular, Inter; font-size: 18px;"><tspan x="0" y="0">Y</tspan><tspan x="11.97" y="0" style="letter-spacing: -.02em;">2</tspan><tspan x="22.58" y="0" style="letter-spacing: 0em;">4</tspan></text>
    <text transform="translate(0 253.21)" style="fill: #fff; font-family: Inter-Regular, Inter; font-size: 18px;"><tspan x="0" y="0">Y23</tspan></text>
    <text transform="translate(1.55 472.67)" style="fill: #fff; font-family: Inter-Regular, Inter; font-size: 18px;"><tspan x="0" y="0">Y21</tspan></text>
    <text transform="translate(.1 545.83)" style="fill: #fff; font-family: Inter-Regular, Inter; font-size: 18px;"><tspan x="0" y="0">Y20</tspan></text>
    <text transform="translate(1.38 618.98)" style="fill: #fff; font-family: Inter-Regular, Inter; font-size: 18px;"><tspan x="0" y="0">Y19</tspan></text>
    <text transform="translate(1.45 692.14)" style="fill: #fff; font-family: Inter-Regular, Inter; font-size: 18px;"><tspan x="0" y="0">Y18</tspan></text>
    <text transform="translate(463.44 838.8)" style="fill: #fff; font-family: Inter-Regular, Inter; font-size: 18px;"><tspan x="0" y="0">Y13</tspan></text>
    <text transform="translate(176.81 772.58)" style="fill: #fff; font-family: Inter-Regular, Inter; font-size: 18px;"><tspan x="0" y="0">Y17</tspan></text>
    <text transform="translate(399.47 772.58)" style="fill: #fff; font-family: Inter-Regular, Inter; font-size: 18px;"><tspan x="0" y="0">Y14</tspan></text>
    <text transform="translate(250.77 772.58)" style="fill: #fff; font-family: Inter-Regular, Inter; font-size: 18px;"><tspan x="0" y="0">Y16</tspan></text>
    <text transform="translate(325.34 772.58)" style="fill: #fff; font-family: Inter-Regular, Inter; font-size: 18px;"><tspan x="0" y="0">Y15</tspan></text>
    <text transform="translate(329.52 1358.6)" style="fill: #fff; font-family: Inter-Regular, Inter; font-size: 18px;"><tspan x="0" y="0">Y5</tspan></text>
    <text transform="translate(404.28 1281.29)" style="fill: #fff; font-family: Inter-Regular, Inter; font-size: 18px;"><tspan x="0" y="0">Y7</tspan></text>
    <text transform="translate(404.26 1358.6)" style="fill: #fff; font-family: Inter-Regular, Inter; font-size: 18px;"><tspan x="0" y="0" style="letter-spacing: -.07em;">Y</tspan><tspan x="10.74" y="0">4</tspan></text>
    <text transform="translate(329.38 1281.29)" style="fill: #fff; font-family: Inter-Regular, Inter; font-size: 18px;"><tspan x="0" y="0">Y6</tspan></text>
    <text transform="translate(463.72 911.95)" style="fill: #fff; font-family: Inter-Regular, Inter; font-size: 18px;"><tspan x="0" y="0">Y12</tspan></text>
    <text transform="translate(464.99 985.11)" style="fill: #fff; font-family: Inter-Regular, Inter; font-size: 18px;"><tspan x="0" y="0">Y11</tspan></text>
    <text transform="translate(463.54 1058.26)" style="fill: #fff; font-family: Inter-Regular, Inter; font-size: 18px;"><tspan x="0" y="0">Y10</tspan></text>
    <text transform="translate(467.74 1131.42)" style="fill: #fff; font-family: Inter-Regular, Inter; font-size: 18px;"><tspan x="0" y="0">Y9</tspan></text>
    <text transform="translate(467.8 1204.57)" style="fill: #fff; font-family: Inter-Regular, Inter; font-size: 18px;"><tspan x="0" y="0">Y8</tspan></text>
    <text transform="translate(467.62 1426.41)" style="fill: #fff; font-family: Inter-Regular, Inter; font-size: 18px;"><tspan x="0" y="0">Y3</tspan></text>
    <text transform="translate(467.9 1499.57)" style="fill: #fff; font-family: Inter-Regular, Inter; font-size: 18px;"><tspan x="0" y="0">Y2</tspan></text>
    <text transform="translate(469.17 1572.72)" style="fill: #fff; font-family: Inter-Regular, Inter; font-size: 18px;"><tspan x="0" y="0">Y1</tspan></text>
    <text transform="translate(.28 362.94)" style="fill: #fff; font-family: Inter-Regular, Inter; font-size: 18px;"><tspan x="0" y="0">Y22</tspan></text>
  </g>
</svg>