<?xml version="1.0" encoding="UTF-8"?>
<svg id="Layer_2" data-name="Layer 2" xmlns="http://www.w3.org/2000/svg" viewBox="0 0 493.86 833.76">
  <g id="Square">
    <rect id="A10" x="36.87" y="85.22" width="55" height="55" style="fill: #ccc;"/>
    <rect id="A11" x="36.87" y="29.24" width="55" height="40" style="fill: #ccc;"/>
    <rect id="B11" x="108.22" y="29.24" width="55" height="40" style="fill: #ccc;"/>
    <rect id="C11" x="179.57" y="29.24" width="55" height="40" style="fill: #ccc;"/>
    <rect id="D11" x="250.92" y="29.24" width="55" height="40" style="fill: #ccc;"/>
    <rect id="E11" x="322.27" y="29.24" width="55" height="40" style="fill: #ccc;"/>
    <rect id="F6" x="443.82" y="29.15" width="25" height="96.03" style="fill: #ccc;"/>
    <rect id="F5" x="443.82" y="170.86" width="25" height="96.03" style="fill: #ccc;"/>
    <rect id="F4" x="443.82" y="312.58" width="25" height="96.03" style="fill: #ccc;"/>
    <rect id="F3" x="443.82" y="454.29" width="25" height="96.03" style="fill: #ccc;"/>
    <rect id="F2" x="443.82" y="596.01" width="25" height="96.03" style="fill: #ccc;"/>
    <rect id="F1" x="443.82" y="737.72" width="25" height="96.03" style="fill: #ccc;"/>
    <rect id="B10" x="108.22" y="85.22" width="55" height="55" style="fill: #ccc;"/>
    <rect id="C10" x="179.57" y="85.22" width="55" height="55" style="fill: #ccc;"/>
    <rect id="D10" x="250.92" y="85.22" width="55" height="55" style="fill: #ccc;"/>
    <rect id="E10" x="322.27" y="85.22" width="55" height="55" style="fill: #ccc;"/>
    <rect id="A9" x="36.87" y="156.25" width="55" height="55" style="fill: #ccc;"/>
    <rect id="A8" x="36.87" y="227.29" width="55" height="55" style="fill: #ccc;"/>
    <rect id="A7" x="36.87" y="298.33" width="55" height="55" style="fill: #ccc;"/>
    <rect id="B9" x="108.22" y="156.25" width="55" height="55" style="fill: #ccc;"/>
    <rect id="C9" x="179.57" y="156.25" width="55" height="55" style="fill: #ccc;"/>
    <rect id="D9" x="250.92" y="156.25" width="55" height="55" style="fill: #ccc;"/>
    <rect id="E9" x="322.27" y="156.25" width="55" height="55" style="fill: #ccc;"/>
    <rect id="B8" x="108.22" y="227.29" width="55" height="55" style="fill: #ccc;"/>
    <rect id="C8" x="179.57" y="227.29" width="55" height="55" style="fill: #ccc;"/>
    <rect id="D8" x="250.92" y="227.29" width="55" height="55" style="fill: #ccc;"/>
    <rect id="E8" x="322.27" y="227.29" width="55" height="55" style="fill: #ccc;"/>
    <rect id="B7" x="108.22" y="298.33" width="55" height="55" style="fill: #ccc;"/>
    <rect id="C7" x="179.57" y="298.33" width="55" height="55" style="fill: #ccc;"/>
    <rect id="D7" x="250.92" y="298.33" width="55" height="55" style="fill: #ccc;"/>
    <rect id="E7" x="322.27" y="298.33" width="55" height="55" style="fill: #ccc;"/>
    <rect id="B6" x="108.22" y="369.37" width="55" height="55" style="fill: #ccc;"/>
    <rect id="C6" x="179.57" y="369.37" width="55" height="55" style="fill: #ccc;"/>
    <rect id="D6" x="250.92" y="369.37" width="55" height="55" style="fill: #ccc;"/>
    <rect id="E6" x="322.27" y="369.37" width="55" height="55" style="fill: #ccc;"/>
    <rect id="B5" x="108.22" y="440.4" width="55" height="55" style="fill: #ccc;"/>
    <rect id="C5" x="179.57" y="440.4" width="55" height="55" style="fill: #ccc;"/>
    <rect id="D5" x="250.92" y="440.4" width="55" height="55" style="fill: #ccc;"/>
    <rect id="E5" x="322.27" y="440.4" width="55" height="55" style="fill: #ccc;"/>
    <rect id="B4" x="108.22" y="511.44" width="55" height="55" style="fill: #ccc;"/>
    <rect id="C4" x="179.57" y="511.44" width="55" height="55" style="fill: #ccc;"/>
    <rect id="D4" x="250.92" y="511.44" width="55" height="55" style="fill: #ccc;"/>
    <rect id="E4" x="322.27" y="511.44" width="55" height="55" style="fill: #ccc;"/>
    <rect id="B3" x="108.22" y="582.48" width="55" height="55" style="fill: #ccc;"/>
    <rect id="B2" x="108.22" y="653.52" width="55" height="55" style="fill: #ccc;"/>
    <rect id="B1" x="108.22" y="724.55" width="55" height="55" style="fill: #ccc;"/>
    <rect id="A4" x="36.87" y="511.44" width="55" height="55" style="fill: #ccc;"/>
    <rect id="A3" x="36.87" y="582.48" width="55" height="55" style="fill: #ccc;"/>
    <rect id="A2" x="36.87" y="653.52" width="55" height="55" style="fill: #ccc;"/>
    <rect id="A1" x="36.87" y="724.55" width="55" height="55" style="fill: #ccc;"/>
    <rect id="C3" x="179.57" y="582.48" width="55" height="55" style="fill: #ccc;"/>
    <rect id="D3" x="250.92" y="582.48" width="55" height="55" style="fill: #ccc;"/>
    <rect id="E3" x="322.27" y="582.48" width="55" height="55" style="fill: #ccc;"/>
    <rect id="E2" x="322.27" y="653.52" width="55" height="55" style="fill: #ccc;"/>
    <rect id="E1" x="322.27" y="724.55" width="55" height="55" style="fill: #ccc;"/>
    <polygon id="A6" points="36.87 369.37 36.87 412.01 49.23 412.01 49.23 424.37 91.87 424.37 91.87 369.37 36.87 369.37" style="fill: #ccc;"/>
    <polygon id="A5" points="49.23 440.4 49.23 452.76 36.87 452.76 36.87 495.4 91.87 495.4 91.87 440.4 49.23 440.4" style="fill: #ccc;"/>
    <g id="Number">
      <path d="m60.41,13.23h-1.66L63.55.13h1.64l4.81,13.09h-1.66l-3.91-11.02h-.1l-3.91,11.02Zm.61-5.11h6.7v1.41h-6.7v-1.41Z" style="fill: #fff;"/>
      <g>
        <path d="m6.3,42.7v13.09h-1.59v-11.43h-.08l-3.2,2.12v-1.61l3.27-2.17h1.59Z" style="fill: #fff;"/>
        <path d="m15.56,42.7v13.09h-1.59v-11.43h-.08l-3.2,2.12v-1.61l3.27-2.17h1.59Z" style="fill: #fff;"/>
      </g>
      <g>
        <path d="m4.86,106.17v13.09h-1.59v-11.43h-.08l-3.2,2.12v-1.61l3.27-2.17h1.59Z" style="fill: #fff;"/>
        <path d="m13.79,119.44c-.96,0-1.78-.26-2.46-.79s-1.2-1.29-1.55-2.29-.54-2.22-.54-3.64.18-2.62.54-3.63c.36-1,.88-1.77,1.56-2.3.68-.53,1.5-.8,2.45-.8s1.77.27,2.45.8c.68.53,1.2,1.3,1.56,2.3.36,1,.54,2.21.54,3.63s-.18,2.64-.54,3.64-.88,1.77-1.55,2.29-1.5.79-2.46.79Zm0-1.41c.95,0,1.7-.46,2.22-1.38.53-.92.79-2.23.79-3.94,0-1.13-.12-2.1-.36-2.9s-.59-1.4-1.04-1.82c-.45-.42-.99-.63-1.62-.63-.95,0-1.69.47-2.22,1.4s-.8,2.25-.8,3.95c0,1.13.12,2.1.36,2.89s.58,1.4,1.03,1.81c.45.41.99.62,1.63.62Z" style="fill: #fff;"/>
      </g>
      <path d="m9.07,177.17c.54,0,1.07.11,1.61.31.54.2,1.03.53,1.47.99.44.46.8,1.09,1.07,1.89.27.8.4,1.8.4,3s-.11,2.2-.33,3.1-.53,1.66-.95,2.28c-.41.62-.91,1.09-1.5,1.41-.59.32-1.25.48-1.98.48s-1.39-.15-1.96-.44-1.04-.7-1.41-1.22c-.36-.52-.6-1.13-.7-1.82h1.56c.14.6.42,1.1.84,1.49.42.39.98.58,1.67.58,1.01,0,1.81-.44,2.39-1.32.59-.88.88-2.13.88-3.74h-.1c-.24.36-.52.67-.85.93-.33.26-.69.46-1.09.6s-.83.21-1.28.21c-.75,0-1.44-.19-2.06-.56s-1.12-.89-1.5-1.54c-.37-.65-.56-1.4-.56-2.25s.18-1.53.54-2.2c.36-.67.87-1.2,1.52-1.6.65-.4,1.42-.59,2.31-.58Zm0,1.41c-.54,0-1.02.13-1.45.4-.43.27-.77.62-1.02,1.07s-.37.95-.37,1.49.12,1.04.36,1.49.57.8.99,1.06c.42.26.9.39,1.44.39.4,0,.78-.08,1.13-.24.35-.16.66-.38.92-.66.26-.28.47-.6.62-.95.15-.36.22-.73.22-1.12,0-.51-.12-.99-.37-1.44-.25-.45-.58-.81-1.01-1.09-.43-.28-.92-.42-1.46-.42Z" style="fill: #fff;"/>
      <path d="m9.16,261.79c-.88,0-1.65-.16-2.32-.47-.67-.31-1.19-.75-1.57-1.3-.38-.55-.56-1.18-.56-1.89,0-.55.1-1.07.33-1.54.22-.47.53-.86.91-1.18.39-.32.82-.52,1.29-.6v-.08c-.63-.16-1.12-.51-1.5-1.06-.37-.54-.55-1.16-.55-1.86,0-.67.16-1.26.5-1.78.34-.52.81-.94,1.41-1.24.6-.3,1.28-.45,2.05-.45s1.44.15,2.03.45c.6.3,1.07.72,1.41,1.24.34.52.52,1.12.52,1.78,0,.69-.19,1.31-.57,1.86-.37.54-.87.9-1.48,1.06v.08c.47.09.9.29,1.28.6.38.32.68.71.91,1.18.23.47.34.98.35,1.54,0,.71-.19,1.34-.57,1.89-.38.55-.9.98-1.57,1.3-.67.31-1.44.47-2.31.47Zm0-1.41c.59,0,1.1-.1,1.53-.29.43-.19.76-.46,1-.81s.35-.76.36-1.23c0-.49-.13-.93-.38-1.31-.25-.38-.59-.68-1.03-.9-.43-.22-.93-.33-1.48-.33s-1.06.11-1.49.33c-.44.22-.78.52-1.03.9-.25.38-.37.82-.37,1.31,0,.47.11.88.34,1.23s.57.62,1,.81c.43.19.95.29,1.55.29Zm0-6.21c.47,0,.89-.09,1.25-.28s.65-.45.86-.79c.21-.34.32-.73.32-1.18,0-.44-.11-.83-.31-1.16-.2-.33-.49-.59-.85-.77s-.78-.27-1.27-.27-.92.09-1.28.27c-.37.18-.65.44-.85.77-.2.33-.3.72-.29,1.16,0,.45.1.85.3,1.18.21.34.49.6.86.79.37.19.79.28,1.27.28Z" style="fill: #fff;"/>
      <path d="m5.78,332.61l5.85-11.58v-.1h-6.75v-1.41h8.39v1.48l-5.83,11.61h-1.66Z" style="fill: #fff;"/>
      <path d="m9.25,403.79c-.54,0-1.07-.11-1.61-.31-.54-.2-1.03-.53-1.47-.99-.44-.47-.8-1.1-1.07-1.9-.27-.8-.4-1.8-.4-3.01s.11-2.19.33-3.08.53-1.65.95-2.27c.41-.62.91-1.08,1.5-1.4.59-.32,1.25-.48,1.98-.48s1.39.15,1.96.44,1.04.7,1.4,1.22.6,1.12.7,1.8h-1.56c-.15-.59-.43-1.08-.84-1.46-.42-.39-.97-.58-1.66-.58-1.01,0-1.81.44-2.39,1.32-.58.88-.87,2.12-.88,3.71h.1c.24-.36.52-.67.85-.93.33-.26.7-.46,1.1-.6.4-.14.82-.21,1.27-.21.75,0,1.44.19,2.06.56.62.37,1.12.89,1.5,1.54.38.65.56,1.4.56,2.25s-.18,1.55-.54,2.22c-.36.67-.87,1.2-1.52,1.6-.65.39-1.42.59-2.3.58Zm0-1.41c.54,0,1.02-.13,1.45-.4s.77-.63,1.02-1.08c.25-.45.37-.95.37-1.51s-.12-1.03-.36-1.48c-.24-.44-.57-.8-.99-1.06-.42-.26-.9-.4-1.44-.4-.4,0-.78.08-1.13.24-.35.16-.66.38-.92.66s-.47.59-.62.95c-.15.36-.22.73-.22,1.12,0,.52.12,1.01.37,1.46.25.45.58.82,1.01,1.09.43.28.92.42,1.46.42Z" style="fill: #fff;"/>
      <path d="m9.13,474.79c-.75,0-1.43-.15-2.03-.45-.6-.3-1.08-.71-1.44-1.23-.36-.52-.56-1.11-.59-1.78h1.53c.06.59.33,1.08.81,1.47.48.39,1.05.58,1.72.58.54,0,1.02-.13,1.44-.38.42-.25.75-.6.99-1.04.24-.44.36-.94.36-1.5s-.12-1.08-.37-1.53c-.25-.45-.59-.8-1.03-1.06s-.93-.39-1.49-.4c-.4,0-.81.06-1.23.18-.42.12-.77.29-1.04.48l-1.48-.18.79-6.44h6.8v1.41h-5.47l-.46,3.86h.08c.27-.21.6-.39,1.01-.53.4-.14.83-.21,1.27-.21.8,0,1.52.19,2.14.57.63.38,1.12.9,1.48,1.56.36.66.54,1.42.54,2.26s-.19,1.58-.56,2.23c-.37.65-.89,1.17-1.54,1.55s-1.39.57-2.22.57Z" style="fill: #fff;"/>
      <path d="m4.43,542.92v-1.3l5.75-9.1h.95v2.02h-.64l-4.35,6.88v.1h7.75v1.41H4.43Zm6.16,2.68v-13.09h1.51v13.09h-1.51Z" style="fill: #fff;"/>
      <path d="m9.21,616.78c-.84,0-1.59-.14-2.25-.43-.66-.29-1.18-.69-1.57-1.21-.39-.52-.6-1.12-.63-1.81h1.61c.03.42.18.79.43,1.09.26.31.59.54,1,.71.41.17.87.25,1.37.25.56,0,1.06-.1,1.5-.29s.78-.47,1.02-.82c.25-.35.37-.75.37-1.21s-.12-.91-.36-1.27c-.24-.37-.59-.66-1.05-.87-.46-.21-1.02-.31-1.69-.31h-1.05v-1.41h1.05c.52,0,.98-.09,1.37-.28s.7-.45.93-.79c.22-.34.34-.74.34-1.2s-.1-.83-.29-1.16c-.2-.33-.47-.58-.83-.77-.36-.18-.77-.28-1.26-.28-.45,0-.88.08-1.28.25s-.72.4-.97.71c-.25.31-.39.68-.41,1.12h-1.53c.03-.69.23-1.29.62-1.81.39-.52.9-.92,1.52-1.21.63-.29,1.32-.43,2.07-.43.81,0,1.5.16,2.08.49.58.33,1.02.76,1.34,1.29.31.53.47,1.11.47,1.73,0,.74-.19,1.37-.58,1.89-.39.52-.91.88-1.57,1.08v.1c.83.14,1.47.49,1.94,1.05s.7,1.26.7,2.09c0,.71-.19,1.35-.58,1.92s-.91,1.01-1.58,1.33c-.66.32-1.42.49-2.27.49Z" style="fill: #fff;"/>
      <path d="m5.06,687.78v-1.15l4.32-4.73c.51-.55.92-1.04,1.25-1.45.33-.41.57-.8.73-1.16.16-.36.24-.75.24-1.15,0-.46-.11-.86-.33-1.2-.22-.34-.52-.6-.9-.78-.38-.18-.81-.27-1.28-.27-.5,0-.94.1-1.31.31-.37.21-.66.5-.86.87-.2.37-.3.81-.3,1.3h-1.51c0-.77.18-1.44.53-2.02.35-.58.84-1.03,1.45-1.36.61-.32,1.3-.49,2.06-.49s1.45.16,2.04.49c.59.32,1.06.76,1.39,1.31.34.55.5,1.16.5,1.83,0,.48-.09.95-.26,1.41-.17.46-.47.97-.89,1.53-.42.56-1.01,1.24-1.76,2.05l-2.94,3.15v.1h6.09v1.41H5.06Z" style="fill: #fff;"/>
      <path d="m10.93,745.51v13.09h-1.59v-11.43h-.08l-3.2,2.12v-1.61l3.27-2.17h1.59Z" style="fill: #fff;"/>
      <path d="m489.05,83.89c-.54,0-1.07-.11-1.61-.31-.54-.2-1.03-.53-1.47-.99-.44-.47-.8-1.1-1.07-1.9-.27-.8-.4-1.8-.4-3.01s.11-2.19.33-3.08.53-1.65.95-2.27c.41-.62.91-1.08,1.5-1.4.59-.32,1.25-.48,1.98-.48s1.39.15,1.96.44,1.04.7,1.4,1.22.6,1.12.7,1.8h-1.56c-.15-.59-.43-1.08-.84-1.46-.42-.39-.97-.58-1.66-.58-1.01,0-1.81.44-2.39,1.32-.58.88-.87,2.12-.88,3.71h.1c.24-.36.52-.67.85-.93.33-.26.7-.46,1.1-.6.4-.14.82-.21,1.27-.21.75,0,1.44.19,2.06.56.62.37,1.12.89,1.5,1.54.38.65.56,1.4.56,2.25s-.18,1.55-.54,2.22c-.36.67-.87,1.2-1.52,1.6-.65.39-1.42.59-2.3.58Zm0-1.41c.54,0,1.02-.13,1.45-.4s.77-.63,1.02-1.08c.25-.45.37-.95.37-1.51s-.12-1.03-.36-1.48c-.24-.44-.57-.8-.99-1.06-.42-.26-.9-.4-1.44-.4-.4,0-.78.08-1.13.24-.35.16-.66.38-.92.66s-.47.59-.62.95c-.15.36-.22.73-.22,1.12,0,.52.12,1.01.37,1.46.25.45.58.82,1.01,1.09.43.28.92.42,1.46.42Z" style="fill: #fff;"/>
      <path d="m488.8,225.6c-.75,0-1.43-.15-2.03-.45-.6-.3-1.08-.71-1.44-1.23s-.56-1.11-.59-1.78h1.53c.06.59.33,1.08.81,1.47.48.39,1.05.58,1.72.58.54,0,1.02-.13,1.44-.38.42-.25.75-.6.99-1.04s.36-.94.36-1.5-.12-1.08-.37-1.53c-.25-.45-.59-.8-1.03-1.06-.43-.26-.93-.39-1.49-.4-.4,0-.81.06-1.23.18-.42.13-.77.29-1.04.48l-1.48-.18.79-6.44h6.8v1.41h-5.47l-.46,3.86h.08c.27-.21.6-.39,1.01-.53.4-.14.83-.21,1.27-.21.8,0,1.52.19,2.14.57.63.38,1.12.9,1.48,1.56.36.66.54,1.41.54,2.26s-.19,1.58-.56,2.23c-.37.65-.89,1.17-1.54,1.55s-1.39.57-2.22.57Z" style="fill: #fff;"/>
      <path d="m484.4,364.46v-1.3l5.75-9.1h.95v2.02h-.64l-4.35,6.88v.1h7.75v1.41h-9.46Zm6.16,2.68v-13.09h1.51v13.09h-1.51Z" style="fill: #fff;"/>
      <path d="m489.13,509.03c-.84,0-1.59-.14-2.25-.43-.66-.29-1.18-.69-1.57-1.21-.39-.52-.6-1.12-.63-1.81h1.61c.03.42.18.79.43,1.09.26.31.59.54,1,.71.41.17.87.25,1.37.25.56,0,1.06-.1,1.5-.29s.78-.47,1.02-.82c.25-.35.37-.75.37-1.21s-.12-.91-.36-1.27c-.24-.37-.59-.66-1.05-.87-.46-.21-1.02-.31-1.69-.31h-1.05v-1.41h1.05c.52,0,.98-.09,1.37-.28s.7-.45.93-.79c.22-.34.34-.74.34-1.2s-.1-.83-.29-1.16c-.2-.33-.47-.58-.83-.77-.36-.18-.77-.28-1.26-.28-.45,0-.88.08-1.28.25s-.72.4-.97.71c-.25.31-.39.68-.41,1.12h-1.53c.03-.69.23-1.29.62-1.81.39-.52.9-.92,1.52-1.21.63-.29,1.32-.43,2.07-.43.81,0,1.5.16,2.08.49.58.33,1.02.76,1.34,1.29.31.53.47,1.11.47,1.73,0,.74-.19,1.37-.58,1.89-.39.52-.91.88-1.57,1.08v.1c.83.14,1.47.49,1.94,1.05s.7,1.26.7,2.09c0,.71-.19,1.35-.58,1.92s-.91,1.01-1.58,1.33c-.66.32-1.42.49-2.27.49Z" style="fill: #fff;"/>
      <path d="m484.71,650.75v-1.15l4.32-4.73c.51-.55.92-1.04,1.25-1.45.33-.41.57-.8.73-1.16.16-.36.24-.75.24-1.15,0-.46-.11-.86-.33-1.2-.22-.34-.52-.6-.9-.78-.38-.18-.81-.27-1.28-.27-.5,0-.94.1-1.31.31-.37.21-.66.5-.86.87-.2.37-.3.81-.3,1.3h-1.51c0-.77.18-1.44.53-2.02.35-.58.84-1.03,1.45-1.36.61-.32,1.3-.49,2.06-.49s1.45.16,2.04.49c.59.32,1.06.76,1.39,1.31.34.55.5,1.16.5,1.83,0,.48-.09.95-.26,1.41-.17.46-.47.97-.89,1.53-.42.56-1.01,1.24-1.76,2.05l-2.94,3.15v.1h6.09v1.41h-8.26Z" style="fill: #fff;"/>
      <path d="m489.31,779.2v13.09h-1.59v-11.43h-.08l-3.2,2.12v-1.61l3.27-2.17h1.59Z" style="fill: #fff;"/>
      <path d="m131.33,13.18V.09h4.58c.91,0,1.66.16,2.26.47s1.03.73,1.32,1.26c.29.53.43,1.11.43,1.75,0,.56-.1,1.03-.3,1.39-.2.37-.46.66-.78.87-.32.21-.67.37-1.04.47v.13c.4.03.8.17,1.21.42s.74.62,1.02,1.1c.27.48.41,1.06.41,1.75s-.15,1.25-.45,1.77c-.3.52-.77.94-1.41,1.25-.64.31-1.48.46-2.51.46h-4.73Zm1.58-7.34h2.94c.48,0,.91-.09,1.29-.28s.69-.45.92-.79c.23-.34.34-.74.34-1.2,0-.58-.2-1.06-.6-1.47-.4-.4-1.04-.6-1.9-.6h-2.99v4.35Zm0,5.93h3.15c1.04,0,1.77-.2,2.21-.6.44-.4.66-.89.66-1.47,0-.44-.11-.85-.34-1.23-.23-.38-.55-.68-.97-.91s-.91-.34-1.48-.34h-3.22v4.55Z" style="fill: #fff;"/>
      <path d="m212.82,4.27h-1.58c-.09-.46-.26-.86-.49-1.2-.23-.35-.51-.64-.84-.87-.33-.24-.7-.41-1.1-.53-.4-.12-.82-.18-1.25-.18-.79,0-1.51.2-2.15.6-.64.4-1.15.99-1.53,1.77-.38.78-.57,1.74-.57,2.87s.19,2.09.57,2.87c.38.78.89,1.37,1.53,1.77.64.4,1.36.6,2.15.6.44,0,.85-.06,1.25-.18.4-.12.77-.3,1.1-.53.33-.24.61-.53.84-.88.23-.35.4-.75.49-1.2h1.58c-.12.67-.34,1.27-.65,1.8-.32.53-.71.98-1.18,1.35s-.99.65-1.58.84c-.58.19-1.2.29-1.86.29-1.12,0-2.11-.27-2.98-.82s-1.55-1.32-2.05-2.33-.75-2.2-.75-3.58.25-2.57.75-3.58,1.18-1.78,2.05-2.33,1.86-.82,2.98-.82c.66,0,1.28.1,1.86.29.58.19,1.11.47,1.58.84s.86.82,1.18,1.34.53,1.13.65,1.8Z" style="fill: #fff;"/>
      <path d="m278.19,13.14h-4.04V.04h4.22c1.27,0,2.36.26,3.26.78.9.52,1.6,1.27,2.08,2.24.48.97.72,2.14.72,3.49s-.24,2.54-.73,3.52c-.49.98-1.19,1.74-2.12,2.26-.93.53-2.06.79-3.39.79Zm-2.45-1.41h2.35c1.08,0,1.98-.21,2.69-.63.71-.42,1.24-1.01,1.59-1.78.35-.77.52-1.69.52-2.75s-.17-1.97-.52-2.73c-.35-.76-.86-1.35-1.55-1.76-.69-.41-1.54-.62-2.56-.62h-2.53v10.28Z" style="fill: #fff;"/>
      <path d="m345.77,13.27V.18h7.9v1.41h-6.32v4.42h5.91v1.41h-5.91v4.45h6.42v1.41h-8Z" style="fill: #fff;"/>
      <path d="m452.39,13.27V.18h7.85v1.41h-6.26v4.42h5.68v1.41h-5.68v5.85h-1.58Z" style="fill: #fff;"/>
    </g>
  </g>
</svg>