<?xml version="1.0" encoding="UTF-8"?>
<svg id="Layer_2" data-name="Layer 2" xmlns="http://www.w3.org/2000/svg" viewBox="0 0 459.1 855.74">
  <g id="Corridor">
    <text transform="translate(58.41 15.54)" style="fill: #fff; font-family: Inter-Regular, Inter; font-size: 18px;"><tspan x="0" y="0">G</tspan></text>
    <text transform="translate(129.79 15.54)" style="fill: #fff; font-family: Inter-Regular, Inter; font-size: 18px;"><tspan x="0" y="0">H</tspan></text>
    <rect id="G10" x="37.6" y="32.88" width="55" height="55" style="fill: #898989;"/>
    <rect id="G9" x="37.6" y="106.11" width="55" height="55" style="fill: #898989;"/>
    <rect id="G8" x="37.6" y="179.35" width="55" height="55" style="fill: #898989;"/>
    <rect id="G7" x="37.6" y="252.58" width="55" height="55" style="fill: #898989;"/>
    <rect id="G6" x="37.6" y="325.81" width="55" height="55" style="fill: #898989;"/>
    <rect id="G5" x="37.6" y="399.04" width="55" height="55" style="fill: #898989;"/>
    <rect id="H9" x="112.1" y="106.11" width="55" height="55" style="fill: #898989;"/>
    <rect id="H8" x="112.1" y="179.35" width="55" height="55" style="fill: #898989;"/>
    <rect id="H7" x="112.1" y="252.58" width="55" height="55" style="fill: #898989;"/>
    <rect id="H6" x="112.1" y="325.81" width="55" height="55" style="fill: #898989;"/>
    <rect id="H3" x="112.1" y="545.51" width="55" height="55" style="fill: #898989;"/>
    <rect id="H2" x="112.1" y="618.74" width="55" height="55" style="fill: #898989;"/>
    <rect id="H1" x="112.1" y="691.97" width="55" height="55" style="fill: #898989;"/>
    <rect id="J3" x="404.1" y="766.4" width="55" height="55" transform="translate(1225.5 362.29) rotate(90)" style="fill: #898989;"/>
    <rect id="J2" x="330.87" y="766.4" width="55" height="55" transform="translate(1152.27 435.53) rotate(90)" style="fill: #898989;"/>
    <rect id="J1" x="257.64" y="766.4" width="55" height="55" transform="translate(1079.03 508.76) rotate(90)" style="fill: #898989;"/>
    <polygon id="H5" points="167.1 399.14 167.1 441.78 154.74 441.78 154.74 454.14 112.1 454.14 112.1 399.14 167.1 399.14" style="fill: #898989;"/>
    <polygon id="H4" points="154.74 472.27 154.74 484.63 167.1 484.63 167.1 527.27 112.1 527.27 112.1 472.27 154.74 472.27" style="fill: #898989;"/>
    <polygon id="H10" points="154.74 32.88 154.74 45.24 167.1 45.24 167.1 87.88 112.1 87.88 112.1 32.88 154.74 32.88" style="fill: #898989;"/>
    <text transform="translate(0 65.28)" style="fill: #fff; font-family: Inter-Regular, Inter; font-size: 18px;"><tspan x="0" y="0">10</tspan></text>
    <text transform="translate(4.19 138.51)" style="fill: #fff; font-family: Inter-Regular, Inter; font-size: 18px;"><tspan x="0" y="0">9</tspan></text>
    <text transform="translate(4.26 211.74)" style="fill: #fff; font-family: Inter-Regular, Inter; font-size: 18px;"><tspan x="0" y="0">8</tspan></text>
    <text transform="translate(4.67 284.98)" style="fill: #fff; font-family: Inter-Regular, Inter; font-size: 18px;"><tspan x="0" y="0">7</tspan></text>
    <text transform="translate(4.19 358.21)" style="fill: #fff; font-family: Inter-Regular, Inter; font-size: 18px;"><tspan x="0" y="0">6</tspan></text>
    <text transform="translate(4.33 431.44)" style="fill: #fff; font-family: Inter-Regular, Inter; font-size: 18px;"><tspan x="0" y="0">5</tspan></text>
    <text transform="translate(4.03 504.67)" style="fill: #fff; font-family: Inter-Regular, Inter; font-size: 18px;"><tspan x="0" y="0">4</tspan></text>
    <text transform="translate(4.08 577.9)" style="fill: #fff; font-family: Inter-Regular, Inter; font-size: 18px;"><tspan x="0" y="0">3</tspan></text>
    <text transform="translate(4.36 651.14)" style="fill: #fff; font-family: Inter-Regular, Inter; font-size: 18px;"><tspan x="0" y="0">2</tspan></text>
    <text transform="translate(5.62 724.37)" style="fill: #fff; font-family: Inter-Regular, Inter; font-size: 18px;"><tspan x="0" y="0">1</tspan></text>
    <text transform="translate(276.07 849.99)" style="fill: #fff; font-family: Inter-Regular, Inter; font-size: 18px;"><tspan x="0" y="0">J1</tspan></text>
    <text transform="translate(348.04 849.99)" style="fill: #fff; font-family: Inter-Regular, Inter; font-size: 18px;"><tspan x="0" y="0">J2</tspan></text>
    <text transform="translate(420.99 849.99)" style="fill: #fff; font-family: Inter-Regular, Inter; font-size: 18px;"><tspan x="0" y="0">J3</tspan></text>
  </g>
</svg>