<?xml version="1.0" encoding="UTF-8"?>
<svg id="Layer_2" data-name="Layer 2" xmlns="http://www.w3.org/2000/svg" viewBox="0 0 511.81 732.45">
  <g id="Front_Terrace" data-name="Front Terrace">
    <rect id="K3" x="0" y="0" width="104.65" height="104.65" transform="translate(104.65 0) rotate(90)" style="fill: #ccc;"/>
    <rect id="K2" x="0" y="156.95" width="104.65" height="104.65" transform="translate(261.6 156.95) rotate(90)" style="fill: #ccc;"/>
    <rect id="K1" x="0" y="313.9" width="104.65" height="104.65" transform="translate(418.55 313.9) rotate(90)" style="fill: #ccc;"/>
    <rect id="K6" x="135.72" y="156.95" width="104.65" height="104.65" transform="translate(397.32 21.23) rotate(90)" style="fill: #ccc;"/>
    <rect id="K5" x="135.72" y="313.9" width="104.65" height="104.65" transform="translate(554.27 178.18) rotate(90)" style="fill: #ccc;"/>
    <rect id="K4" x="135.72" y="470.85" width="104.65" height="104.65" transform="translate(711.22 335.13) rotate(90)" style="fill: #ccc;"/>
    <rect id="K9" x="271.44" y="313.9" width="104.65" height="104.65" transform="translate(689.99 42.46) rotate(90)" style="fill: #ccc;"/>
    <rect id="K8" x="271.44" y="470.85" width="104.65" height="104.65" transform="translate(846.95 199.41) rotate(90)" style="fill: #ccc;"/>
    <rect id="K10" x="407.17" y="470.85" width="104.65" height="104.65" transform="translate(982.67 63.69) rotate(90)" style="fill: #ccc;"/>
    <rect id="K7" x="271.44" y="627.81" width="104.65" height="104.65" transform="translate(1003.9 356.36) rotate(90)" style="fill: #ccc;"/>
  </g>
</svg>