<?xml version="1.0" encoding="UTF-8"?>
<svg id="Layer_2" data-name="Layer 2" xmlns="http://www.w3.org/2000/svg" viewBox="0 0 464.01 1343.14">
  <g id="Pillar">
    <rect id="Z8" x="439.37" y="0" width="24.64" height="24.64" transform="translate(464.01 -439.37) rotate(90)" style="fill: #898989;"/>
    <rect id="Z7" x="439.37" y="146.66" width="24.64" height="24.64" transform="translate(610.67 -292.71) rotate(90)" style="fill: #898989;"/>
    <rect id="Z6" x="439.37" y="293.32" width="24.64" height="24.64" transform="translate(757.32 -146.05) rotate(90)" style="fill: #898989;"/>
    <rect id="Z5" x="439.37" y="439.97" width="24.64" height="24.64" transform="translate(903.98 .61) rotate(90)" style="fill: #898989;"/>
    <rect id="Z9" x="0" y="439.97" width="24.64" height="24.64" transform="translate(464.62 439.97) rotate(90)" style="fill: #898989;"/>
    <rect id="Z4" x="439.37" y="586.63" width="24.64" height="24.64" transform="translate(1050.64 147.27) rotate(90)" style="fill: #898989;"/>
    <rect id="Z3" x="439.37" y="733.29" width="24.64" height="24.64" transform="translate(1197.3 293.92) rotate(90)" style="fill: #898989;"/>
    <rect id="Z2" x="439.37" y="879.95" width="24.64" height="24.64" transform="translate(1343.96 440.58) rotate(90)" style="fill: #898989;"/>
    <rect id="Z1" x="439.37" y="1318.49" width="24.64" height="24.64" transform="translate(1782.5 879.13) rotate(90)" style="fill: #898989;"/>
    <text transform="translate(40.11 457.19)" style="fill: #fff; font-family: Inter-Regular, Inter; font-size: 18px;"><tspan x="0" y="0">Z9</tspan></text>
    <text transform="translate(399.23 1335.71)" style="fill: #fff; font-family: Inter-Regular, Inter; font-size: 18px;"><tspan x="0" y="0">Z1</tspan></text>
    <text transform="translate(397.96 897.17)" style="fill: #fff; font-family: Inter-Regular, Inter; font-size: 18px;"><tspan x="0" y="0">Z2</tspan></text>
    <text transform="translate(397.68 750.51)" style="fill: #fff; font-family: Inter-Regular, Inter; font-size: 18px;"><tspan x="0" y="0">Z3</tspan></text>
    <text transform="translate(397.63 603.85)" style="fill: #fff; font-family: Inter-Regular, Inter; font-size: 18px;"><tspan x="0" y="0">Z4</tspan></text>
    <text transform="translate(397.94 457.19)" style="fill: #fff; font-family: Inter-Regular, Inter; font-size: 18px;"><tspan x="0" y="0">Z5</tspan></text>
    <text transform="translate(397.8 310.53)" style="fill: #fff; font-family: Inter-Regular, Inter; font-size: 18px;"><tspan x="0" y="0">Z6</tspan></text>
    <text transform="translate(398.27 163.87)" style="fill: #fff; font-family: Inter-Regular, Inter; font-size: 18px;"><tspan x="0" y="0">Z7</tspan></text>
    <text transform="translate(397.86 17.22)" style="fill: #fff; font-family: Inter-Regular, Inter; font-size: 18px;"><tspan x="0" y="0">Z8</tspan></text>
  </g>
</svg>