<?xml version="1.0" encoding="UTF-8"?>
<svg id="Layer_2" data-name="Layer 2" xmlns="http://www.w3.org/2000/svg" viewBox="0 0 210.95 452.03">
  <g id="Back_Terrace" data-name="Back Terrace">
    <rect id="L3" x="0" y="33.48" width="104.65" height="104.65" transform="translate(138.13 33.48) rotate(90)" style="fill: #898989;"/>
    <rect id="L2" x="0" y="190.43" width="104.65" height="104.65" transform="translate(295.08 190.43) rotate(90)" style="fill: #898989;"/>
    <rect id="L1" x="0" y="347.38" width="104.65" height="104.65" transform="translate(452.03 347.38) rotate(90)" style="fill: #898989;"/>
    <rect id="L6" x="116.97" y="44.15" width="104.65" height="83.31" transform="translate(255.1 -83.49) rotate(90)" style="fill: #898989;"/>
    <rect id="L5" x="116.97" y="201.1" width="104.65" height="83.31" transform="translate(412.05 73.47) rotate(90)" style="fill: #898989;"/>
    <rect id="L4" x="116.97" y="358.05" width="104.65" height="83.31" transform="translate(569 230.42) rotate(90)" style="fill: #898989;"/>
    <text transform="translate(41.53 15.55)" style="fill: #fff; font-family: Inter-Regular, Inter; font-size: 18px;"><tspan x="0" y="0">L3</tspan></text>
    <text transform="translate(158.62 15.55)" style="fill: #fff; font-family: Inter-Regular, Inter; font-size: 18px;"><tspan x="0" y="0">L6</tspan></text>
    <text transform="translate(41.82 173.57)" style="fill: #fff; font-family: Inter-Regular, Inter; font-size: 18px;"><tspan x="0" y="0">L2</tspan></text>
    <text transform="translate(158.76 173.57)" style="fill: #fff; font-family: Inter-Regular, Inter; font-size: 18px;"><tspan x="0" y="0">L5</tspan></text>
    <text transform="translate(43.49 330.66)" style="fill: #fff; font-family: Inter-Regular, Inter; font-size: 18px;"><tspan x="0" y="0" style="letter-spacing: -.05em;">L</tspan><tspan x="9.31" y="0" style="letter-spacing: 0em;">1</tspan></text>
    <text transform="translate(158.45 330.66)" style="fill: #fff; font-family: Inter-Regular, Inter; font-size: 18px;"><tspan x="0" y="0">L4</tspan></text>
  </g>
</svg>