<?xml version="1.0" encoding="UTF-8"?>
<svg id="Layer_2" data-name="Layer 2" xmlns="http://www.w3.org/2000/svg" viewBox="0 0 499.93 836.04">
  <g id="Square">
    <rect id="A10" x="38.12" y="87.5" width="55" height="55" style="fill: #898989;"/>
    <rect id="A11" x="38.12" y="31.52" width="55" height="40" style="fill: #898989;"/>
    <rect id="B11" x="109.48" y="31.52" width="55" height="40" style="fill: #898989;"/>
    <rect id="C11" x="180.83" y="31.52" width="55" height="40" style="fill: #898989;"/>
    <rect id="D11" x="252.18" y="31.52" width="55" height="40" style="fill: #898989;"/>
    <rect id="E11" x="323.53" y="31.52" width="55" height="40" style="fill: #898989;"/>
    <rect id="F6" x="445.07" y="31.43" width="25" height="96.03" style="fill: #898989;"/>
    <rect id="F5" x="445.07" y="173.14" width="25" height="96.03" style="fill: #898989;"/>
    <rect id="F4" x="445.07" y="314.86" width="25" height="96.03" style="fill: #898989;"/>
    <rect id="F3" x="445.07" y="456.57" width="25" height="96.03" style="fill: #898989;"/>
    <rect id="F2" x="445.07" y="598.29" width="25" height="96.03" style="fill: #898989;"/>
    <rect id="F1" x="445.07" y="740" width="25" height="96.03" style="fill: #898989;"/>
    <rect id="B10" x="109.48" y="87.5" width="55" height="55" style="fill: #898989;"/>
    <rect id="C10" x="180.83" y="87.5" width="55" height="55" style="fill: #898989;"/>
    <rect id="D10" x="252.18" y="87.5" width="55" height="55" style="fill: #898989;"/>
    <rect id="E10" x="323.53" y="87.5" width="55" height="55" style="fill: #898989;"/>
    <rect id="A9" x="38.12" y="158.53" width="55" height="55" style="fill: #898989;"/>
    <rect id="A8" x="38.12" y="229.57" width="55" height="55" style="fill: #898989;"/>
    <rect id="A7" x="38.12" y="300.61" width="55" height="55" style="fill: #898989;"/>
    <rect id="B9" x="109.48" y="158.53" width="55" height="55" style="fill: #898989;"/>
    <rect id="C9" x="180.83" y="158.53" width="55" height="55" style="fill: #898989;"/>
    <rect id="D9" x="252.18" y="158.53" width="55" height="55" style="fill: #898989;"/>
    <rect id="E9" x="323.53" y="158.53" width="55" height="55" style="fill: #898989;"/>
    <rect id="B8" x="109.48" y="229.57" width="55" height="55" style="fill: #898989;"/>
    <rect id="C8" x="180.83" y="229.57" width="55" height="55" style="fill: #898989;"/>
    <rect id="D8" x="252.18" y="229.57" width="55" height="55" style="fill: #898989;"/>
    <rect id="E8" x="323.53" y="229.57" width="55" height="55" style="fill: #898989;"/>
    <rect id="B7" x="109.48" y="300.61" width="55" height="55" style="fill: #898989;"/>
    <rect id="C7" x="180.83" y="300.61" width="55" height="55" style="fill: #898989;"/>
    <rect id="D7" x="252.18" y="300.61" width="55" height="55" style="fill: #898989;"/>
    <rect id="E7" x="323.53" y="300.61" width="55" height="55" style="fill: #898989;"/>
    <rect id="B6" x="109.48" y="371.65" width="55" height="55" style="fill: #898989;"/>
    <rect id="C6" x="180.83" y="371.65" width="55" height="55" style="fill: #898989;"/>
    <rect id="D6" x="252.18" y="371.65" width="55" height="55" style="fill: #898989;"/>
    <rect id="E6" x="323.53" y="371.65" width="55" height="55" style="fill: #898989;"/>
    <rect id="B5" x="109.48" y="442.68" width="55" height="55" style="fill: #898989;"/>
    <rect id="C5" x="180.83" y="442.68" width="55" height="55" style="fill: #898989;"/>
    <rect id="D5" x="252.18" y="442.68" width="55" height="55" style="fill: #898989;"/>
    <rect id="E5" x="323.53" y="442.68" width="55" height="55" style="fill: #898989;"/>
    <rect id="B4" x="109.48" y="513.72" width="55" height="55" style="fill: #898989;"/>
    <rect id="C4" x="180.83" y="513.72" width="55" height="55" style="fill: #898989;"/>
    <rect id="D4" x="252.18" y="513.72" width="55" height="55" style="fill: #898989;"/>
    <rect id="E4" x="323.53" y="513.72" width="55" height="55" style="fill: #898989;"/>
    <rect id="B3" x="109.48" y="584.76" width="55" height="55" style="fill: #898989;"/>
    <rect id="B2" x="109.48" y="655.8" width="55" height="55" style="fill: #898989;"/>
    <rect id="B1" x="109.48" y="726.83" width="55" height="55" style="fill: #898989;"/>
    <rect id="A4" x="38.12" y="513.72" width="55" height="55" style="fill: #898989;"/>
    <rect id="A3" x="38.12" y="584.76" width="55" height="55" style="fill: #898989;"/>
    <rect id="A2" x="38.12" y="655.8" width="55" height="55" style="fill: #898989;"/>
    <rect id="A1" x="38.12" y="726.83" width="55" height="55" style="fill: #898989;"/>
    <rect id="C3" x="180.83" y="584.76" width="55" height="55" style="fill: #898989;"/>
    <rect id="D3" x="252.18" y="584.76" width="55" height="55" style="fill: #898989;"/>
    <rect id="E3" x="323.53" y="584.76" width="55" height="55" style="fill: #898989;"/>
    <rect id="E2" x="323.53" y="655.8" width="55" height="55" style="fill: #898989;"/>
    <rect id="E1" x="323.53" y="726.83" width="55" height="55" style="fill: #898989;"/>
    <polygon id="A6" points="38.13 371.65 38.13 414.29 50.48 414.29 50.48 426.65 93.13 426.65 93.13 371.65 38.13 371.65" style="fill: #898989;"/>
    <polygon id="A5" points="50.48 442.68 50.48 455.04 38.13 455.04 38.13 497.68 93.13 497.68 93.13 442.68 50.48 442.68" style="fill: #898989;"/>
    <text transform="translate(59.54 15.55)" style="fill: #fff; font-family: Inter-Regular, Inter; font-size: 18.01px;"><tspan x="0" y="0">A</tspan></text>
    <text transform="translate(1.45 56.42)" style="fill: #fff; font-family: Inter-Regular, Inter; font-size: 18.01px;"><tspan x="0" y="0">11</tspan></text>
    <text transform="translate(0 119.89)" style="fill: #fff; font-family: Inter-Regular, Inter; font-size: 18.01px;"><tspan x="0" y="0">10</tspan></text>
    <text transform="translate(4.19 190.93)" style="fill: #fff; font-family: Inter-Regular, Inter; font-size: 18.01px;"><tspan x="0" y="0">9</tspan></text>
    <text transform="translate(4.26 261.97)" style="fill: #fff; font-family: Inter-Regular, Inter; font-size: 18.01px;"><tspan x="0" y="0">8</tspan></text>
    <text transform="translate(4.67 333.01)" style="fill: #fff; font-family: Inter-Regular, Inter; font-size: 18.01px;"><tspan x="0" y="0">7</tspan></text>
    <text transform="translate(4.19 404.04)" style="fill: #fff; font-family: Inter-Regular, Inter; font-size: 18.01px;"><tspan x="0" y="0">6</tspan></text>
    <text transform="translate(4.34 475.08)" style="fill: #fff; font-family: Inter-Regular, Inter; font-size: 18.01px;"><tspan x="0" y="0">5</tspan></text>
    <text transform="translate(4.03 546.12)" style="fill: #fff; font-family: Inter-Regular, Inter; font-size: 18.01px;"><tspan x="0" y="0">4</tspan></text>
    <text transform="translate(4.08 617.16)" style="fill: #fff; font-family: Inter-Regular, Inter; font-size: 18.01px;"><tspan x="0" y="0">3</tspan></text>
    <text transform="translate(4.36 688.19)" style="fill: #fff; font-family: Inter-Regular, Inter; font-size: 18.01px;"><tspan x="0" y="0">2</tspan></text>
    <text transform="translate(5.63 759.23)" style="fill: #fff; font-family: Inter-Regular, Inter; font-size: 18.01px;"><tspan x="0" y="0">1</tspan></text>
    <text transform="translate(488.53 84.34)" style="fill: #fff; font-family: Inter-Regular, Inter; font-size: 18.01px;"><tspan x="0" y="0">6</tspan></text>
    <text transform="translate(488.67 226.06)" style="fill: #fff; font-family: Inter-Regular, Inter; font-size: 18.01px;"><tspan x="0" y="0">5</tspan></text>
    <text transform="translate(488.37 367.77)" style="fill: #fff; font-family: Inter-Regular, Inter; font-size: 18.01px;"><tspan x="0" y="0">4</tspan></text>
    <text transform="translate(488.42 509.49)" style="fill: #fff; font-family: Inter-Regular, Inter; font-size: 18.01px;"><tspan x="0" y="0">3</tspan></text>
    <text transform="translate(488.7 651.2)" style="fill: #fff; font-family: Inter-Regular, Inter; font-size: 18.01px;"><tspan x="0" y="0">2</tspan></text>
    <text transform="translate(489.97 792.92)" style="fill: #fff; font-family: Inter-Regular, Inter; font-size: 18.01px;"><tspan x="0" y="0">1</tspan></text>
    <text transform="translate(131.12 15.55)" style="fill: #fff; font-family: Inter-Regular, Inter; font-size: 18.01px;"><tspan x="0" y="0">B</tspan></text>
    <text transform="translate(201.78 15.55)" style="fill: #fff; font-family: Inter-Regular, Inter; font-size: 18.01px;"><tspan x="0" y="0">C</tspan></text>
    <text transform="translate(273.2 15.55)" style="fill: #fff; font-family: Inter-Regular, Inter; font-size: 18.01px;"><tspan x="0" y="0">D</tspan></text>
    <text transform="translate(345.64 15.55)" style="fill: #fff; font-family: Inter-Regular, Inter; font-size: 18.01px;"><tspan x="0" y="0">E</tspan></text>
    <text transform="translate(452.29 15.55)" style="fill: #fff; font-family: Inter-Regular, Inter; font-size: 18.01px;"><tspan x="0" y="0">F</tspan></text>
  </g>
</svg>